<?xml version="1.0" encoding="UTF-8" standalone="no"?>
<svg
   xmlns:dc="http://purl.org/dc/elements/1.1/"
   xmlns:cc="http://creativecommons.org/ns#"
   xmlns:rdf="http://www.w3.org/1999/02/22-rdf-syntax-ns#"
   xmlns:svg="http://www.w3.org/2000/svg"
   xmlns="http://www.w3.org/2000/svg"
   xmlns:sodipodi="http://sodipodi.sourceforge.net/DTD/sodipodi-0.dtd"
   xmlns:inkscape="http://www.inkscape.org/namespaces/inkscape"
   version="1.1"
   x="0px"
   y="0px"
   viewBox="0 0 90 112.5"
   enable-background="new 0 0 90 90"
   xml:space="preserve"
   id="svg2"
   inkscape:version="0.91 r13725"
   sodipodi:docname="noun_152968_cc.svg"><metadata
     id="metadata14"><rdf:RDF><cc:Work
         rdf:about=""><dc:format>image/svg+xml</dc:format><dc:type
           rdf:resource="http://purl.org/dc/dcmitype/StillImage" /></cc:Work></rdf:RDF></metadata><defs
     id="defs12" /><sodipodi:namedview
     pagecolor="#ffffff"
     bordercolor="#666666"
     borderopacity="1"
     objecttolerance="10"
     gridtolerance="10"
     guidetolerance="10"
     inkscape:pageopacity="0"
     inkscape:pageshadow="2"
     inkscape:window-width="640"
     inkscape:window-height="480"
     id="namedview10"
     showgrid="false"
     inkscape:zoom="2.0977778"
     inkscape:cx="45"
     inkscape:cy="56.25"
     inkscape:window-x="0"
     inkscape:window-y="0"
     inkscape:window-maximized="0"
     inkscape:current-layer="svg2" /><path
     d="M83.964,32.86L45.339,19.51c-0.328-0.113-0.683-0.112-1.009,0.001L6.032,32.861C5.423,33.073,5.011,33.643,5,34.289  c-0.01,0.645,0.383,1.229,0.985,1.46l15.553,5.999v15.533c0,0.87,0.852,1.422,1.599,1.786c0.99,0.443,2.593,0.973,5.188,1.642v8.326  c0,0.637,0.393,1.208,0.987,1.437c0.596,0.229,1.269,0.066,1.695-0.407l3.15-3.5l3.15,3.5c0.297,0.331,0.716,0.509,1.144,0.509  c0.185,0,0.372-0.033,0.552-0.102c0.595-0.229,0.987-0.802,0.986-1.438l-0.009-6.343c1.548,0.123,3.088,0.206,4.586,0.206  c6.329,0,11.955-1.043,15.56-1.918c7.47-1.813,7.47-2.464,7.47-3.449V42.028l16.414-6.277c0.604-0.231,0.999-0.815,0.989-1.462  C84.989,33.642,84.575,33.07,83.964,32.86z M24.616,56.321V42.934l3.709,1.432v13.149C26.636,57.041,25.371,56.605,24.616,56.321z   M35.301,63.234c-0.583-0.646-1.704-0.646-2.287,0l-1.612,1.791v-19.47l5.48,2.111l0.025,17.353L35.301,63.234z M64.521,56.499  c-2.622,0.941-10.68,3.32-19.953,3.32c-1.497,0-3.039-0.085-4.591-0.215l-0.016-10.751l4.322,1.667  c0.178,0.069,0.366,0.104,0.554,0.104c0.186,0,0.373-0.034,0.549-0.102l19.134-7.318V56.499z M44.839,47.438l-5.866-2.263  c-0.001,0-0.001,0-0.001,0l-0.386-0.149L11.003,34.387l33.835-11.794l34.124,11.794L44.839,47.438z"
     id="path4" /></svg>