<svg xmlns="http://www.w3.org/2000/svg" xmlns:xlink="http://www.w3.org/1999/xlink" version="1.1" x="0px" y="0px" viewBox="0 0 90 112.5" enable-background="new 0 0 90 90" xml:space="preserve"><path d="M74.128,26.815H57.921v-4.55c0-4.197-4.492-7.611-10.015-7.611h-6.08c-5.466,0-9.747,3.343-9.747,7.611v4.55H16.365  c-3.548,0-6.327,2.508-6.327,5.71v4.93v3.8v3.431c0,0.56,0.308,1.076,0.802,1.339c0.127,0.068,0.924,0.49,2.238,1.119v24.902  c0,1.647,1.168,3.41,2.906,3.41h57.763c1.787,0,3.174-1.833,3.174-3.41V47.145c1.312-0.628,2.107-1.05,2.237-1.119  c0.493-0.264,0.803-0.78,0.803-1.339v-3.431v-3.8v-4.93C79.962,29.216,77.508,26.815,74.128,26.815 M35.12,22.265  c0-2.521,3.009-4.571,6.707-4.571h6.08c3.715,0,6.975,2.136,6.975,4.571v4.55H35.12V22.265z M73.881,72.031  c0,0.105-0.142,0.304-0.244,0.386h-57.42c-0.051-0.098-0.098-0.246-0.098-0.37V48.531c5.127,2.234,13.376,5.316,22.041,6.49v1.435  c0,1.677,1.363,3.04,3.04,3.04h7.6c1.677,0,3.04-1.363,3.04-3.04v-1.431c8.665-1.176,16.914-4.262,22.041-6.495V72.031z   M41.2,56.456v-7.601h7.6l0.003,7.601H41.2z M76.922,43.755c-2.976,1.484-13.776,6.571-25.082,8.197v-3.097  c0-1.677-1.363-3.04-3.04-3.04h-7.6c-1.677,0-3.04,1.363-3.04,3.04v3.1c-11.303-1.621-22.105-6.713-25.081-8.2v-2.5v-3.8v-4.93  c0-1.672,1.671-2.67,3.287-2.67h57.763c1.697,0,2.794,1.048,2.794,2.67v4.93v3.8V43.755z"/></svg>