<?xml version="1.0" encoding="UTF-8" standalone="no"?>
<svg
   xmlns:dc="http://purl.org/dc/elements/1.1/"
   xmlns:cc="http://creativecommons.org/ns#"
   xmlns:rdf="http://www.w3.org/1999/02/22-rdf-syntax-ns#"
   xmlns:svg="http://www.w3.org/2000/svg"
   xmlns="http://www.w3.org/2000/svg"
   xmlns:sodipodi="http://sodipodi.sourceforge.net/DTD/sodipodi-0.dtd"
   xmlns:inkscape="http://www.inkscape.org/namespaces/inkscape"
   version="1.1"
   x="0px"
   y="0px"
   viewBox="0 0 48 60"
   style="enable-background:new 0 0 48 48;"
   xml:space="preserve"
   id="svg2"
   inkscape:version="0.91 r13725"
   sodipodi:docname="noun_81172_cc.svg"><metadata
     id="metadata30"><rdf:RDF><cc:Work
         rdf:about=""><dc:format>image/svg+xml</dc:format><dc:type
           rdf:resource="http://purl.org/dc/dcmitype/StillImage" /></cc:Work></rdf:RDF></metadata><defs
     id="defs28" /><sodipodi:namedview
     pagecolor="#ffffff"
     bordercolor="#666666"
     borderopacity="1"
     objecttolerance="10"
     gridtolerance="10"
     guidetolerance="10"
     inkscape:pageopacity="0"
     inkscape:pageshadow="2"
     inkscape:window-width="640"
     inkscape:window-height="480"
     id="namedview26"
     showgrid="false"
     inkscape:zoom="3.9333333"
     inkscape:cx="24"
     inkscape:cy="30"
     inkscape:window-x="0"
     inkscape:window-y="0"
     inkscape:window-maximized="0"
     inkscape:current-layer="svg2" /><g
     id="g4"><path
       d="M48,48H0V27h48V48z M2,46h44V29H2V46z"
       id="path6" /><g
       id="g8"><path
         d="M17.008,28.124L16.117,21H7.883l-0.891,7.124l-1.984-0.248l1-8C6.071,19.376,6.496,19,7,19h10    c0.504,0,0.93,0.376,0.992,0.876l1,8L17.008,28.124z"
         id="path10" /><path
         d="M15,20h-2v-8c0-0.217,0.07-0.427,0.2-0.6l2.702-3.604l-1.656-5.797H9.755L8.099,7.796l2.702,3.604    c0.13,0.173,0.2,0.383,0.2,0.6v8h-2v-7.667L6.201,8.6C6.013,8.35,5.953,8.027,6.039,7.727l2-7C8.162,0.296,8.554,0,9,0h6    c0.446,0,0.839,0.296,0.961,0.727l2,7c0.086,0.301,0.026,0.623-0.162,0.873l-2.8,3.733L15,20L15,20z"
         id="path12" /><path
         d="M10,29c-0.552,0-1-0.447-1-1v-4c0-0.553,0.448-1,1-1s1,0.447,1,1v4C11,28.553,10.552,29,10,29z"
         id="path14" /><path
         d="M14,29c-0.552,0-1-0.447-1-1v-4c0-0.553,0.448-1,1-1s1,0.447,1,1v4C15,28.553,14.552,29,14,29z"
         id="path16" /><path
         d="M24,12h-3c-0.552,0-1-0.447-1-1c0-7.773,4.559-11,7-11h8.184c0.424,0,0.801,0.268,0.942,0.665C36.41,1.464,37.163,2,38,2    s1.59-0.536,1.874-1.335C40.016,0.268,40.393,0,40.816,0H43c0.552,0,1,0.447,1,1v8c0,0.553-0.448,1-1,1h-2.777    c-0.283,0-0.554-0.12-0.744-0.33c-0.777-0.865-2.18-0.865-2.957,0C36.332,9.88,36.063,10,35.777,10H27c-1.299,0-2,0.516-2,1    C25,11.553,24.552,12,24,12z M22.03,10h1.181c0.477-1.098,1.76-2,3.789-2h8.37c1.456-1.281,3.804-1.281,5.26,0H42V2h-0.548    C40.746,3.221,39.436,4,38,4s-2.746-0.779-3.452-2H27C25.607,2,22.373,4.318,22.03,10z"
         id="path18" /><path
         d="M34,29h-5c-0.552,0-1-0.447-1-1V9c0-0.553,0.448-1,1-1h5c0.552,0,1,0.447,1,1v19C35,28.553,34.552,29,34,29z M30,27h3V10    h-3V27z"
         id="path20" /></g></g></svg>